<svg width="18" height="18" viewBox="0 0 18 18" fill="none" xmlns="http://www.w3.org/2000/svg">
<g clip-path="url(#clip0_22_275)">
<path fill-rule="evenodd" clip-rule="evenodd" d="M6 2C3.79086 2 2 3.79086 2 6V12C2 14.2091 3.79086 16 6 16H12C14.2091 16 16 14.2091 16 12V6C16 3.79086 14.2091 2 12 2H6ZM0 6C0 2.68629 2.68629 0 6 0H12C15.3137 0 18 2.68629 18 6V12C18 15.3137 15.3137 18 12 18H6C2.68629 18 0 15.3137 0 12V6Z" fill="#142641"/>
<path fill-rule="evenodd" clip-rule="evenodd" d="M12.4852 6.29289C12.8757 5.90237 13.5088 5.90237 13.8994 6.29289C14.2899 6.68342 14.2899 7.31658 13.8994 7.70711L10.8994 10.7071C10.5088 11.0976 9.87568 11.0976 9.48515 10.7071L8.19226 9.41421L5.89937 11.7071C5.50884 12.0976 4.87568 12.0976 4.48515 11.7071C4.09463 11.3166 4.09463 10.6834 4.48515 10.2929L7.48515 7.29289C7.87568 6.90237 8.50884 6.90237 8.89937 7.29289L10.1923 8.58579L12.4852 6.29289Z" fill="#142641"/>
</g>
<defs>
<clipPath id="clip0_22_275">
<rect width="18" height="18" fill="white"/>
</clipPath>
</defs>
</svg>
