<svg width="18" height="18" viewBox="0 0 18 18" fill="none" xmlns="http://www.w3.org/2000/svg">
<g clip-path="url(#clip0_22_271)">
<path fill-rule="evenodd" clip-rule="evenodd" d="M9 1.45946C4.83547 1.45946 1.45946 4.83547 1.45946 9C1.45946 13.1645 4.83547 16.5405 9 16.5405C13.1645 16.5405 16.5405 13.1645 16.5405 9C16.5405 4.83547 13.1645 1.45946 9 1.45946ZM0 9C0 4.02944 4.02944 0 9 0C13.9706 0 18 4.02944 18 9C18 13.9706 13.9706 18 9 18C4.02944 18 0 13.9706 0 9Z" fill="#142641"/>
<path fill-rule="evenodd" clip-rule="evenodd" d="M12.6884 6.14636C12.9957 6.40716 13.0334 6.86766 12.7726 7.17492L8.87268 11.7695C8.74568 11.9191 8.56376 12.0113 8.36799 12.0252C8.17222 12.0391 7.97911 11.9735 7.83226 11.8433L5.75916 10.0055C5.45759 9.73816 5.42984 9.27695 5.69719 8.97538C5.96455 8.6738 6.42575 8.64606 6.72733 8.91341L8.24249 10.2566L11.6599 6.23048C11.9207 5.92322 12.3812 5.88556 12.6884 6.14636Z" fill="#142641"/>
</g>
<defs>
<clipPath id="clip0_22_271">
<rect width="18" height="18" fill="white"/>
</clipPath>
</defs>
</svg>
