<svg width="310" height="88" viewBox="0 0 310 88" fill="none" xmlns="http://www.w3.org/2000/svg">
<rect width="52.6866" height="52.6866" transform="translate(24 17.6567)" fill="white"/>
<path d="M37.516 31.1728C40.0434 28.6455 43.2634 26.9243 46.7689 26.227C50.2744 25.5297 53.908 25.8876 57.2102 27.2554C60.5123 28.6232 63.3347 30.9395 65.3204 33.9113C67.3061 36.8831 68.366 40.3771 68.366 43.9513C68.366 47.5255 67.3061 51.0194 65.3204 53.9913C63.3347 56.9631 60.5123 59.2794 57.2102 60.6472C53.908 62.015 50.2744 62.3728 46.7689 61.6755C43.2634 60.9783 40.0434 59.2571 37.516 56.7298L41.181 53.0647C42.9835 54.8672 45.28 56.0947 47.7801 56.592C50.2802 57.0893 52.8716 56.8341 55.2267 55.8586C57.5817 54.8831 59.5946 53.2312 61.0108 51.1117C62.427 48.9922 63.1829 46.5004 63.1829 43.9513C63.1829 41.4022 62.427 38.9104 61.0108 36.7909C59.5946 34.6714 57.5817 33.0195 55.2267 32.044C52.8716 31.0685 50.2802 30.8133 47.7801 31.3106C45.28 31.8079 42.9835 33.0354 41.181 34.8378L37.516 31.1728Z" fill="#C6DDFF"/>
<path d="M37.516 31.1728C40.0434 28.6455 43.2634 26.9243 46.7689 26.227C50.2744 25.5297 53.908 25.8876 57.2102 27.2554C60.5123 28.6232 63.3347 30.9395 65.3204 33.9113C67.3061 36.8831 68.366 40.3771 68.366 43.9513C68.366 47.5255 67.3061 51.0194 65.3204 53.9913C63.3347 56.9631 60.5123 59.2794 57.2102 60.6472C53.908 62.015 50.2744 62.3728 46.7689 61.6755C43.2634 60.9783 40.0434 59.2571 37.516 56.7298L41.181 53.0647C42.9835 54.8672 45.28 56.0947 47.7801 56.592C50.2802 57.0893 52.8716 56.8341 55.2267 55.8586C57.5817 54.8831 59.5946 53.2312 61.0108 51.1117C62.427 48.9922 63.1829 46.5004 63.1829 43.9513C63.1829 41.4022 62.427 38.9104 61.0108 36.7909C59.5946 34.6714 57.5817 33.0195 55.2267 32.044C52.8716 31.0685 50.2802 30.8133 47.7801 31.3106C45.28 31.8079 42.9835 33.0354 41.181 34.8378L37.516 31.1728Z" fill="url(#paint0_radial_12_1312)"/>
<path d="M37.516 31.1728C40.0434 28.6455 43.2634 26.9243 46.7689 26.227C50.2744 25.5297 53.908 25.8876 57.2102 27.2554C60.5123 28.6232 63.3347 30.9395 65.3204 33.9113C67.3061 36.8831 68.366 40.3771 68.366 43.9513C68.366 47.5255 67.3061 51.0194 65.3204 53.9913C63.3347 56.9631 60.5123 59.2794 57.2102 60.6472C53.908 62.015 50.2744 62.3728 46.7689 61.6755C43.2634 60.9783 40.0434 59.2571 37.516 56.7298L41.181 53.0647C42.9835 54.8672 45.28 56.0947 47.7801 56.592C50.2802 57.0893 52.8716 56.8341 55.2267 55.8586C57.5817 54.8831 59.5946 53.2312 61.0108 51.1117C62.427 48.9922 63.1829 46.5004 63.1829 43.9513C63.1829 41.4022 62.427 38.9104 61.0108 36.7909C59.5946 34.6714 57.5817 33.0195 55.2267 32.044C52.8716 31.0685 50.2802 30.8133 47.7801 31.3106C45.28 31.8079 42.9835 33.0354 41.181 34.8378L37.516 31.1728Z" fill="url(#paint1_radial_12_1312)"/>
<path d="M37.516 31.1728C40.0434 28.6455 43.2634 26.9243 46.7689 26.227C50.2744 25.5297 53.908 25.8876 57.2102 27.2554C60.5123 28.6232 63.3347 30.9395 65.3204 33.9113C67.3061 36.8831 68.366 40.3771 68.366 43.9513C68.366 47.5255 67.3061 51.0194 65.3204 53.9913C63.3347 56.9631 60.5123 59.2794 57.2102 60.6472C53.908 62.015 50.2744 62.3728 46.7689 61.6755C43.2634 60.9783 40.0434 59.2571 37.516 56.7298L41.181 53.0647C42.9835 54.8672 45.28 56.0947 47.7801 56.592C50.2802 57.0893 52.8716 56.8341 55.2267 55.8586C57.5817 54.8831 59.5946 53.2312 61.0108 51.1117C62.427 48.9922 63.1829 46.5004 63.1829 43.9513C63.1829 41.4022 62.427 38.9104 61.0108 36.7909C59.5946 34.6714 57.5817 33.0195 55.2267 32.044C52.8716 31.0685 50.2802 30.8133 47.7801 31.3106C45.28 31.8079 42.9835 33.0354 41.181 34.8378L37.516 31.1728Z" fill="url(#paint2_radial_12_1312)"/>
<path d="M37.516 31.1728C40.0434 28.6455 43.2634 26.9243 46.7689 26.227C50.2744 25.5297 53.908 25.8876 57.2102 27.2554C60.5123 28.6232 63.3347 30.9395 65.3204 33.9113C67.3061 36.8831 68.366 40.3771 68.366 43.9513C68.366 47.5255 67.3061 51.0194 65.3204 53.9913C63.3347 56.9631 60.5123 59.2794 57.2102 60.6472C53.908 62.015 50.2744 62.3728 46.7689 61.6755C43.2634 60.9783 40.0434 59.2571 37.516 56.7298L41.181 53.0647C42.9835 54.8672 45.28 56.0947 47.7801 56.592C50.2802 57.0893 52.8716 56.8341 55.2267 55.8586C57.5817 54.8831 59.5946 53.2312 61.0108 51.1117C62.427 48.9922 63.1829 46.5004 63.1829 43.9513C63.1829 41.4022 62.427 38.9104 61.0108 36.7909C59.5946 34.6714 57.5817 33.0195 55.2267 32.044C52.8716 31.0685 50.2802 30.8133 47.7801 31.3106C45.28 31.8079 42.9835 33.0354 41.181 34.8378L37.516 31.1728Z" fill="url(#paint3_radial_12_1312)"/>
<path d="M50.3473 50.3263C46.7974 50.3263 43.9196 47.4485 43.9196 43.8985C43.9196 40.3486 46.7974 37.4708 50.3473 37.4708C53.8973 37.4708 56.7751 40.3486 56.7751 43.8985C56.7751 47.4485 53.8973 50.3263 50.3473 50.3263Z" fill="black"/>
<path d="M33.7984 40.8375C35.5443 40.8375 36.9596 42.2528 36.9596 43.9987C36.9596 45.7446 35.5443 47.1599 33.7984 47.1599C32.0525 47.1599 30.6372 45.7446 30.6372 43.9987C30.6372 42.2528 32.0525 40.8375 33.7984 40.8375Z" fill="black"/>
<path d="M102.876 24.4353V59H97.1152V24.4353H102.876ZM119.627 48.8078C119.627 51.0531 119.169 52.9733 118.253 54.5686C117.337 56.1639 116.126 57.3752 114.619 58.2024C113.142 59.0295 111.547 59.4431 109.833 59.4431C108.149 59.4431 106.643 59.0148 105.313 58.158C104.013 57.3013 102.979 56.0753 102.211 54.48C101.443 52.8847 101.059 50.994 101.059 48.8078C101.059 46.5922 101.443 44.7014 102.211 43.1357C102.979 41.5404 104.013 40.3144 105.313 39.4576C106.643 38.6009 108.149 38.1725 109.833 38.1725C111.547 38.1725 113.142 38.5861 114.619 39.4133C116.126 40.2405 117.337 41.4518 118.253 43.0471C119.169 44.6128 119.627 46.5331 119.627 48.8078ZM113.689 48.8078C113.689 47.5966 113.437 46.5478 112.935 45.6616C112.433 44.7753 111.754 44.0958 110.897 43.6231C110.07 43.1505 109.154 42.9141 108.149 42.9141C107.293 42.9141 106.451 43.1505 105.623 43.6231C104.826 44.0663 104.161 44.731 103.629 45.6173C103.127 46.5035 102.876 47.5671 102.876 48.8078C102.876 50.0486 103.127 51.1122 103.629 51.9984C104.161 52.8847 104.826 53.5642 105.623 54.0369C106.451 54.48 107.293 54.7016 108.149 54.7016C109.154 54.7016 110.07 54.4652 110.897 53.9925C111.754 53.5199 112.433 52.8404 112.935 51.9541C113.437 51.0678 113.689 50.0191 113.689 48.8078ZM133.522 59.4431C131.306 59.4431 129.371 59 127.717 58.1137C126.062 57.2275 124.777 56.0014 123.861 54.4357C122.975 52.8404 122.532 50.9644 122.532 48.8078C122.532 46.6217 122.975 44.7457 123.861 43.18C124.777 41.5847 126.062 40.3587 127.717 39.502C129.371 38.6157 131.321 38.1725 133.566 38.1725C135.811 38.1725 137.717 38.5861 139.283 39.4133C140.878 40.211 142.089 41.3927 142.916 42.9584C143.743 44.4946 144.157 46.3558 144.157 48.542C144.157 48.8078 144.142 49.0885 144.113 49.3839C144.113 49.6793 144.098 49.9157 144.068 50.0929H125.811V46.5478H139.061L137.51 48.5863C137.628 48.409 137.732 48.1727 137.82 47.8773C137.938 47.5523 137.997 47.2864 137.997 47.0796C137.997 46.0752 137.805 45.2184 137.421 44.5094C137.067 43.8004 136.55 43.2391 135.87 42.8255C135.191 42.4119 134.393 42.2051 133.477 42.2051C132.355 42.2051 131.409 42.4562 130.641 42.9584C129.903 43.4311 129.327 44.1549 128.913 45.1298C128.529 46.0752 128.322 47.2569 128.293 48.6749C128.293 50.0339 128.485 51.186 128.869 52.1314C129.282 53.0767 129.888 53.8005 130.686 54.3027C131.483 54.805 132.443 55.0561 133.566 55.0561C134.836 55.0561 135.915 54.8197 136.801 54.3471C137.717 53.8448 138.47 53.1063 139.061 52.1314L144.068 53.6824C143.005 55.6026 141.587 57.0502 139.814 58.0251C138.071 58.9705 135.974 59.4431 133.522 59.4431ZM145.871 38.6157H158.457V43.4459H145.871V38.6157ZM149.372 31.5255H154.911V59H149.372V31.5255ZM165.589 52.6631C165.589 53.254 165.736 53.771 166.032 54.2141C166.327 54.6277 166.726 54.9527 167.228 55.189C167.76 55.3958 168.336 55.4992 168.956 55.4992C169.843 55.4992 170.64 55.322 171.349 54.9675C172.058 54.5834 172.634 54.0516 173.078 53.3722C173.521 52.6631 173.742 51.8212 173.742 50.8463L174.451 53.5051C174.451 54.805 174.082 55.898 173.344 56.7843C172.634 57.6706 171.704 58.3353 170.552 58.7784C169.429 59.2216 168.247 59.4431 167.007 59.4431C165.736 59.4431 164.555 59.192 163.462 58.6898C162.368 58.1876 161.482 57.4638 160.803 56.5184C160.153 55.5435 159.828 54.3618 159.828 52.9733C159.828 50.994 160.522 49.4282 161.911 48.2761C163.299 47.1239 165.264 46.5478 167.804 46.5478C169.104 46.5478 170.242 46.6808 171.216 46.9467C172.221 47.2125 173.063 47.5375 173.742 47.9216C174.422 48.3056 174.909 48.6749 175.205 49.0294V51.6882C174.407 51.0974 173.506 50.6542 172.502 50.3588C171.527 50.0634 170.493 49.9157 169.4 49.9157C168.513 49.9157 167.79 50.0339 167.228 50.2702C166.667 50.477 166.253 50.7872 165.987 51.2008C165.722 51.5848 165.589 52.0723 165.589 52.6631ZM163.373 44.3765L161.246 40.4769C162.309 39.9156 163.609 39.3838 165.145 38.8816C166.682 38.3498 168.395 38.0839 170.286 38.0839C172.029 38.0839 173.58 38.335 174.939 38.8373C176.298 39.3395 177.361 40.078 178.129 41.0529C178.897 41.9983 179.282 43.1652 179.282 44.5537V59H173.742V45.7502C173.742 45.1889 173.654 44.7162 173.476 44.3322C173.299 43.9186 173.019 43.5788 172.634 43.3129C172.28 43.0471 171.852 42.855 171.349 42.7369C170.847 42.6187 170.286 42.5596 169.665 42.5596C168.72 42.5596 167.819 42.663 166.962 42.8698C166.106 43.0766 165.367 43.3277 164.747 43.6231C164.126 43.9186 163.668 44.1697 163.373 44.3765ZM197.029 38.6157H203.365L195.832 48.4976L203.809 59H197.472L192.863 52.5302L188.343 59H181.785L189.85 48.4976L182.228 38.6157H188.786L192.863 44.5094L197.029 38.6157ZM206.382 30.7278C206.382 29.7825 206.722 29.0144 207.401 28.4235C208.081 27.8031 208.893 27.4929 209.838 27.4929C210.784 27.4929 211.581 27.8031 212.231 28.4235C212.911 29.0144 213.25 29.7825 213.25 30.7278C213.25 31.6437 212.911 32.4118 212.231 33.0322C211.581 33.6525 210.784 33.9627 209.838 33.9627C208.893 33.9627 208.081 33.6525 207.401 33.0322C206.722 32.4118 206.382 31.6437 206.382 30.7278ZM207.002 38.6157H212.586V59H207.002V38.6157ZM222.755 52.6631C222.755 53.254 222.903 53.771 223.198 54.2141C223.494 54.6277 223.892 54.9527 224.395 55.189C224.926 55.3958 225.503 55.4992 226.123 55.4992C227.009 55.4992 227.807 55.322 228.516 54.9675C229.225 54.5834 229.801 54.0516 230.244 53.3722C230.687 52.6631 230.909 51.8212 230.909 50.8463L231.618 53.5051C231.618 54.805 231.249 55.898 230.51 56.7843C229.801 57.6706 228.87 58.3353 227.718 58.7784C226.596 59.2216 225.414 59.4431 224.173 59.4431C222.903 59.4431 221.721 59.192 220.628 58.6898C219.535 58.1876 218.649 57.4638 217.969 56.5184C217.319 55.5435 216.994 54.3618 216.994 52.9733C216.994 50.994 217.689 49.4282 219.077 48.2761C220.466 47.1239 222.43 46.5478 224.971 46.5478C226.271 46.5478 227.408 46.6808 228.383 46.9467C229.387 47.2125 230.229 47.5375 230.909 47.9216C231.588 48.3056 232.076 48.6749 232.371 49.0294V51.6882C231.573 51.0974 230.672 50.6542 229.668 50.3588C228.693 50.0634 227.659 49.9157 226.566 49.9157C225.68 49.9157 224.956 50.0339 224.395 50.2702C223.833 50.477 223.42 50.7872 223.154 51.2008C222.888 51.5848 222.755 52.0723 222.755 52.6631ZM220.539 44.3765L218.412 40.4769C219.476 39.9156 220.776 39.3838 222.312 38.8816C223.848 38.3498 225.562 38.0839 227.452 38.0839C229.195 38.0839 230.746 38.335 232.105 38.8373C233.464 39.3395 234.528 40.078 235.296 41.0529C236.064 41.9983 236.448 43.1652 236.448 44.5537V59H230.909V45.7502C230.909 45.1889 230.82 44.7162 230.643 44.3322C230.466 43.9186 230.185 43.5788 229.801 43.3129C229.446 43.0471 229.018 42.855 228.516 42.7369C228.014 42.6187 227.452 42.5596 226.832 42.5596C225.887 42.5596 224.986 42.663 224.129 42.8698C223.272 43.0766 222.533 43.3277 221.913 43.6231C221.293 43.9186 220.835 44.1697 220.539 44.3765Z" fill="black"/>
<defs>
<radialGradient id="paint0_radial_12_1312" cx="0" cy="0" r="1" gradientUnits="userSpaceOnUse" gradientTransform="translate(66.1856 47.3343) rotate(-40.0076) scale(31.6683 20.3576)">
<stop stop-color="#0062F2"/>
<stop offset="1" stop-color="#0062F2" stop-opacity="0"/>
</radialGradient>
<radialGradient id="paint1_radial_12_1312" cx="0" cy="0" r="1" gradientUnits="userSpaceOnUse" gradientTransform="translate(25.8441 42.8448) rotate(10.9012) scale(25.6245 52.6399)">
<stop stop-color="#3C8354"/>
<stop offset="1" stop-color="#3C8354"/>
</radialGradient>
<radialGradient id="paint2_radial_12_1312" cx="0" cy="0" r="1" gradientUnits="userSpaceOnUse" gradientTransform="translate(50.2765 18.4123) rotate(45) scale(16.4902 24.6507)">
<stop stop-color="#DFFF00"/>
<stop offset="1" stop-color="#DFFF00" stop-opacity="0"/>
</radialGradient>
<radialGradient id="paint3_radial_12_1312" cx="0" cy="0" r="1" gradientUnits="userSpaceOnUse" gradientTransform="translate(47.2622 78.7807) rotate(-132.801) scale(18.763 28.0164)">
<stop stop-color="#DFFF00"/>
<stop offset="1" stop-color="#DFFF00" stop-opacity="0"/>
</radialGradient>
</defs>
</svg>
