<svg width="20" height="20" viewBox="0 0 20 20" fill="none" xmlns="http://www.w3.org/2000/svg">
<g id="x">
<path id="Union" d="M15.5893 5.58928C15.9147 5.26384 15.9147 4.7362 15.5893 4.41076C15.2638 4.08533 14.7362 4.08533 14.4107 4.41076L10 8.82151L5.58926 4.41076C5.26382 4.08533 4.73619 4.08533 4.41075 4.41076C4.08531 4.7362 4.08531 5.26384 4.41075 5.58928L8.82149 10L4.41075 14.4108C4.08531 14.7362 4.08531 15.2638 4.41075 15.5893C4.73619 15.9147 5.26382 15.9147 5.58926 15.5893L10 11.1785L14.4107 15.5893C14.7362 15.9147 15.2638 15.9147 15.5893 15.5893C15.9147 15.2638 15.9147 14.7362 15.5893 14.4108L11.1785 10L15.5893 5.58928Z" fill="#6B7280"/>
</g>
</svg>
